<svg width="36" height="36" viewBox="0 0 36 36" fill="none" xmlns="http://www.w3.org/2000/svg">
<g clip-path="url(#clip0_5168_69)">
<path d="M32 0H4C1.79086 0 0 1.79086 0 4V32C0 34.2091 1.79086 36 4 36H32C34.2091 36 36 34.2091 36 32V4C36 1.79086 34.2091 0 32 0Z" fill="#050616"/>
<mask id="mask0_5168_69" style="mask-type:alpha" maskUnits="userSpaceOnUse" x="8" y="8" width="20" height="20">
<path d="M18 28C23.5228 28 28 23.5228 28 18C28 12.4772 23.5228 8 18 8C12.4772 8 8 12.4772 8 18C8 23.5228 12.4772 28 18 28Z" fill="#D9D9D9"/>
</mask>
<g mask="url(#mask0_5168_69)">
<path d="M27.575 18.2257C27.575 17.5674 27.5167 16.9424 27.4167 16.334H18V20.0924H23.3917C23.15 21.3257 22.4417 22.3674 21.3917 23.0757V25.5757H24.6083C26.4917 23.834 27.575 21.2674 27.575 18.2257Z" fill="#4285F4"/>
<path d="M18.0002 27.9999C20.7002 27.9999 22.9585 27.0999 24.6085 25.5749L21.3919 23.0749C20.4919 23.6749 19.3502 24.0416 18.0002 24.0416C15.3919 24.0416 13.1835 22.2832 12.3919 19.9082H9.0752V22.4832C10.7169 25.7499 14.0919 27.9999 18.0002 27.9999Z" fill="#34A853"/>
<path d="M12.3917 19.9092C12.1833 19.3092 12.075 18.6676 12.075 18.0009C12.075 17.3342 12.1917 16.6926 12.3917 16.0926V13.5176H9.075C8.39167 14.8676 8 16.3842 8 18.0009C8 19.6176 8.39167 21.1342 9.075 22.4842L12.3917 19.9092Z" fill="#FBBC05"/>
<path d="M18.0002 11.9583C19.4752 11.9583 20.7919 12.4667 21.8335 13.4583L24.6835 10.6083C22.9585 8.99167 20.7002 8 18.0002 8C14.0919 8 10.7169 10.25 9.0752 13.5167L12.3919 16.0917C13.1835 13.7167 15.3919 11.9583 18.0002 11.9583Z" fill="#EA4335"/>
</g>
</g>
<defs>
<clipPath id="clip0_5168_69">
<rect width="36" height="36" fill="white"/>
</clipPath>
</defs>
</svg>
